<?xml version="1.0" encoding="UTF-8" standalone="no"?>
<svg
   xmlns:dc="http://purl.org/dc/elements/1.1/"
   xmlns:cc="http://creativecommons.org/ns#"
   xmlns:rdf="http://www.w3.org/1999/02/22-rdf-syntax-ns#"
   xmlns:svg="http://www.w3.org/2000/svg"
   xmlns="http://www.w3.org/2000/svg"
   viewBox="280 840 2100 1010"
   xml:space="preserve"
   id="svg2"
   version="1.1"><metadata
     id="metadata8"><rdf:RDF><cc:Work
         rdf:about=""><dc:format>image/svg+xml</dc:format><dc:type
           rdf:resource="http://purl.org/dc/dcmitype/StillImage" /></cc:Work></rdf:RDF></metadata><defs
     id="defs6"><clipPath
       id="clipPath18"
       clipPathUnits="userSpaceOnUse"><path
         id="path16"
         d="M 0,2000 H 2000 V 0 H 0 Z" /></clipPath></defs><g
     transform="matrix(1.3333333,0,0,-1.3333333,0,2666.6667)"
     id="g10"><g
       id="g12"><g
         clip-path="url(#clipPath18)"
         id="g14"><g
           transform="translate(291.4583,938.9279)"
           id="g20"><path
             id="path22"
             style="fill:#000000;fill-opacity:1;fill-rule:nonzero;stroke:none"
             d="m 0,0 -24.811,-131.755 c -0.571,-2.567 -0.856,-5.183 -0.856,-7.843 0,-7.984 2.471,-14.354 7.415,-19.106 4.942,-4.755 11.123,-7.416 18.537,-7.986 0.379,0 0.974,-0.048 1.783,-0.142 0.805,-0.097 1.401,-0.143 1.781,-0.143 9.412,0 18.132,3.112 26.166,9.34 8.032,6.225 13.094,14.852 15.186,25.88 L 70.297,0 c 1.045,5.227 1.568,9.885 1.568,13.973 0,8.746 -2.138,13.119 -6.416,13.119 l 0.285,0.713 h 30.372 l -0.284,-0.713 c -2.093,0 -4.065,-1.047 -5.918,-3.137 C 88.05,21.862 86.528,19.2 85.341,15.969 84.151,12.737 83.202,9.814 82.489,7.2 81.776,4.585 81.228,2.185 80.849,0 L 56.324,-128.761 c -1.997,-10.551 -6.227,-19.702 -12.691,-27.448 -6.466,-7.749 -13.809,-13.382 -22.03,-16.897 -8.224,-3.517 -16.708,-5.276 -25.454,-5.276 -2.566,0 -4.419,0.095 -5.56,0.285 -10.647,0.951 -19.488,4.752 -26.522,11.407 -7.036,6.654 -10.552,15.686 -10.552,27.092 0,3.801 0.379,7.416 1.14,10.837 L -21.104,0 c 1.235,6.178 1.854,11.026 1.854,14.544 0,8.364 -2.138,12.548 -6.417,12.548 v 0.713 H 15.114 V 27.092 C 8.841,27.092 3.801,18.059 0,0" /></g><g
           transform="translate(437.9943,962.8831)"
           id="g24"><path
             id="path26"
             style="fill:#000000;fill-opacity:1;fill-rule:nonzero;stroke:none"
             d="m 0,0 -13.974,-73.292 -1.426,-8.841 c -0.477,-5.418 -0.713,-8.319 -0.713,-8.698 0,-7.7 1.473,-13.81 4.42,-18.323 2.946,-4.517 6.56,-6.773 10.837,-6.773 h 0.286 c 3.801,0.093 7.889,1.425 12.262,3.992 4.371,2.567 8.649,6.226 12.834,10.98 4.181,4.752 8.056,11.098 11.621,19.036 3.564,7.937 6.202,16.754 7.913,26.451 0.856,6.652 1.284,10.837 1.284,12.548 0,11.977 -2.52,22.124 -7.557,30.443 C 32.747,-4.16 26.188,0 18.108,0 Z m 8.128,-121.773 15.541,-50.478 c 0.664,-2.281 1.498,-4.683 2.496,-7.201 0.999,-2.519 2.282,-5.442 3.85,-8.768 1.569,-3.33 3.398,-6.038 5.49,-8.129 2.089,-2.092 4.182,-3.136 6.274,-3.136 v -0.571 H 0.855 v 0.571 c 3.516,0 5.276,2.851 5.276,8.555 0,4.752 -1.141,10.979 -3.423,18.679 l -21.958,70.868 -13.404,-70.868 c -0.951,-4.754 -1.426,-9.553 -1.426,-14.402 0,-8.555 2.044,-12.832 6.131,-12.832 v -0.571 h -40.923 v 0.571 c 2.092,0 4.064,1.068 5.918,3.207 1.853,2.139 3.398,4.825 4.634,8.058 1.234,3.229 2.21,6.153 2.923,8.768 0.712,2.614 1.259,5.014 1.64,7.201 l 28.09,148.296 c 1.141,5.703 1.711,10.551 1.711,14.544 0,8.364 -2.138,12.548 -6.416,12.548 v 0.712 h 62.169 c 11.123,0 19.557,-4.206 25.31,-12.619 5.75,-8.413 8.627,-19.131 8.627,-32.154 0,-4.563 -0.477,-9.793 -1.426,-15.685 -1.807,-10.552 -5.111,-20.439 -9.91,-29.659 -4.801,-9.222 -11.265,-17.182 -19.392,-23.884 -8.128,-6.702 -17.089,-10.577 -26.878,-11.621" /></g><g
           transform="translate(581.8208,959.3184)"
           id="g28"><path
             id="path30"
             style="fill:#000000;fill-opacity:1;fill-rule:nonzero;stroke:none"
             d="m 0,0 -38.5,-88.692 c 10.076,-3.708 19.082,-9.531 27.021,-17.468 7.936,-7.938 14.424,-16.422 19.464,-25.452 z m 21.388,7.414 10.552,-179.95 c 0.379,-3.518 0.902,-6.844 1.568,-9.982 0.664,-3.136 1.877,-6.155 3.637,-9.054 1.757,-2.901 3.779,-4.348 6.06,-4.348 v -0.571 H 1.853 v 0.571 c 5.608,0 8.414,7.318 8.414,21.959 v 3.137 l -0.286,2.994 c -1.047,16.73 -5.133,30.846 -12.263,42.349 -2.662,4.182 -5.656,7.747 -8.983,10.695 -3.328,2.945 -6.986,5.276 -10.98,6.986 -3.992,1.712 -7.557,2.995 -10.694,3.851 -3.137,0.855 -6.94,1.662 -11.407,2.424 l -30.087,-69.299 c -3.518,-8.177 -5.275,-14.594 -5.275,-19.251 0,-3.899 1.376,-5.845 4.135,-5.845 l -0.286,-0.571 h -30.657 l 0.285,0.571 c 5.704,0 12.406,7.793 20.106,23.384 l 67.445,154.142 c 3.516,9.315 5.276,15.874 5.276,19.677 0,3.612 -1.332,5.419 -3.992,5.419 l 0.285,0.712 z" /></g><g
           transform="translate(783.8242,959.3184)"
           id="g32"><path
             id="path34"
             style="fill:#000000;fill-opacity:1;fill-rule:nonzero;stroke:none"
             d="m 0,0 -71.153,-196.206 h -7.272 v 18.965 c 0,23.1 0.45,56.538 1.355,100.313 0.902,43.775 1.401,69.417 1.497,76.928 l -67.446,-173.677 c -2.188,-7.606 -3.28,-12.881 -3.28,-15.827 0,-4.278 1.473,-6.416 4.42,-6.416 v -0.571 h -30.657 l 0.286,0.571 c 3.422,0 6.893,2.613 10.409,7.841 3.518,5.227 6.465,10.788 8.841,16.684 l 60.458,155.425 c 2.376,6.938 3.565,12.356 3.565,16.255 0,4.278 -1.475,6.417 -4.42,6.417 v 0.712 h 49.622 V 6.702 c -3.423,0 -5.967,-2.616 -7.629,-7.843 -1.665,-5.229 -2.591,-10.694 -2.781,-16.398 l -2.709,-109.795 39.783,108.94 c 2.471,8.174 3.707,14.209 3.707,18.108 0,4.657 -1.521,6.988 -4.563,6.988 l 0.286,0.712 H 31.655 V 6.702 c -3.233,0 -5.61,-2.353 -7.129,-7.059 -1.522,-4.705 -2.378,-9.91 -2.567,-15.613 l 1.426,-158.562 c 0.379,-5.515 1.355,-10.459 2.924,-14.829 1.568,-4.374 3.92,-6.559 7.058,-6.559 v -0.571 H -8.128 v 0.571 c 3.327,0 5.726,2.47 7.201,7.414 1.473,4.942 2.304,10.36 2.496,16.255 z" /></g><g
           transform="translate(909.6852,959.3184)"
           id="g36"><path
             id="path38"
             style="fill:#000000;fill-opacity:1;fill-rule:nonzero;stroke:none"
             d="m 0,0 -38.5,-88.692 c 10.076,-3.708 19.082,-9.531 27.021,-17.468 7.936,-7.938 14.424,-16.422 19.464,-25.452 z m 21.388,7.414 10.552,-179.95 c 0.379,-3.518 0.902,-6.844 1.568,-9.982 0.664,-3.136 1.877,-6.155 3.637,-9.054 1.757,-2.901 3.779,-4.348 6.06,-4.348 v -0.571 H 1.853 v 0.571 c 5.608,0 8.414,7.318 8.414,21.959 v 3.137 l -0.286,2.994 c -1.047,16.73 -5.133,30.846 -12.263,42.349 -2.662,4.182 -5.656,7.747 -8.983,10.695 -3.328,2.945 -6.986,5.276 -10.98,6.986 -3.992,1.712 -7.557,2.995 -10.694,3.851 -3.137,0.855 -6.94,1.662 -11.407,2.424 l -30.087,-69.299 c -3.518,-8.177 -5.275,-14.594 -5.275,-19.251 0,-3.899 1.376,-5.845 4.135,-5.845 l -0.286,-0.571 h -30.657 l 0.285,0.571 c 5.704,0 12.405,7.793 20.106,23.384 l 67.445,154.142 c 3.516,9.315 5.276,15.874 5.276,19.677 0,3.612 -1.332,5.419 -3.992,5.419 l 0.285,0.712 z" /></g><g
           transform="translate(1140.2213,962.8831)"
           id="g40"><path
             id="path42"
             style="fill:#000000;fill-opacity:1;fill-rule:nonzero;stroke:none"
             d="m 0,0 -14.545,-76.286 h 18.68 c 7.508,0 14.281,2.517 20.319,7.557 6.036,5.037 10.574,11.169 13.617,18.394 3.042,7.223 4.563,14.545 4.563,21.959 0,8.079 -2.068,14.829 -6.203,20.248 C 32.296,-2.71 26.283,0 18.394,0 Z m -37.074,-196.206 h 20.39 c 11.217,0 21.34,3.85 30.372,11.55 9.031,7.7 15.828,17.061 20.391,28.091 4.563,11.026 6.845,22.243 6.845,33.651 0,12.356 -2.996,22.552 -8.984,30.586 -5.989,8.032 -14.878,12.049 -26.665,12.049 h -20.39 z m 6.702,200.055 h 62.169 c 11.501,0 20.224,-3.161 26.166,-9.481 5.94,-6.324 8.912,-14.285 8.912,-23.885 0,-10.172 -3.187,-19.916 -9.553,-29.23 -6.37,-9.318 -14.973,-15.735 -25.81,-19.251 10.837,-2.567 19.011,-8.056 24.526,-16.469 5.512,-8.413 8.27,-18.419 8.27,-30.016 0,-8.84 -1.64,-17.68 -4.919,-26.521 -3.28,-8.841 -7.796,-16.922 -13.546,-24.241 -5.754,-7.321 -13.118,-13.285 -22.102,-17.895 -8.983,-4.613 -18.657,-6.916 -29.017,-6.916 h -63.596 v 0.571 c 2.091,0 4.064,1.068 5.918,3.207 1.853,2.139 3.398,4.825 4.634,8.058 1.234,3.229 2.21,6.153 2.923,8.768 0.712,2.614 1.259,5.014 1.64,7.201 l 28.09,148.296 c 1.141,5.703 1.711,10.551 1.711,14.544 0,8.364 -2.138,12.548 -6.416,12.548 z" /></g><g
           transform="translate(1243.8375,966.7325)"
           id="g44"><path
             id="path46"
             style="fill:#000000;fill-opacity:1;fill-rule:nonzero;stroke:none"
             d="m 0,0 h 104.804 l -7.557,-56.181 h -3.422 c 0.379,2.567 0.57,5.608 0.57,9.126 0,3.612 -0.238,7.081 -0.713,10.409 -0.476,3.327 -1.568,7.081 -3.28,11.265 -1.71,4.182 -3.945,7.772 -6.701,10.766 -2.758,2.994 -6.655,5.537 -11.693,7.628 -5.039,2.09 -10.932,3.138 -17.681,3.138 H 30.372 l -19.25,-106.944 21.959,0.998 c 3.326,0.189 6.439,1.044 9.34,2.567 2.898,1.519 5.37,3.326 7.415,5.418 2.042,2.09 3.992,4.895 5.846,8.413 1.854,3.516 3.326,6.653 4.421,9.411 1.091,2.756 2.185,6.321 3.279,10.694 1.091,4.371 1.876,7.723 2.352,10.053 0.475,2.328 1.07,5.537 1.783,9.625 0.713,4.086 1.163,6.559 1.354,7.414 h 2.71 C 66.922,-71.772 59.888,-108.94 50.477,-157.706 H 47.91 c 1.141,6.463 1.712,12.071 1.712,16.826 0,8.934 -1.64,15.803 -4.919,20.604 -3.28,4.799 -7.393,7.201 -12.335,7.201 -4.278,0 -8.604,-1.664 -12.976,-4.99 -4.373,-3.329 -8.223,-7.985 -11.549,-13.975 -3.044,-5.799 -5.753,-16.207 -8.128,-31.227 l -6.417,-36.503 h 23.955 c 6.559,0 12.691,0.949 18.394,2.852 5.704,1.9 10.528,4.371 14.474,7.415 3.944,3.04 7.509,6.416 10.694,10.124 3.184,3.707 5.726,7.414 7.629,11.121 1.9,3.708 3.493,7.081 4.777,10.124 1.283,3.042 2.161,5.513 2.638,7.415 l 0.712,2.852 h 3.137 L 66.304,-203.905 H -38.5 v 0.57 c 2.092,0 4.064,1.069 5.918,3.208 1.853,2.139 3.398,4.824 4.634,8.057 1.234,3.23 2.21,6.154 2.923,8.769 0.713,2.614 1.259,5.013 1.64,7.201 L 4.706,-27.805 c 1.141,5.703 1.71,10.552 1.71,14.544 0,8.364 -2.138,12.549 -6.416,12.549 z" /></g><g
           transform="translate(1419.462,959.3184)"
           id="g48"><path
             id="path50"
             style="fill:#000000;fill-opacity:1;fill-rule:nonzero;stroke:none"
             d="m 0,0 -38.5,-88.692 c 10.075,-3.708 19.082,-9.531 27.021,-17.468 7.936,-7.938 14.424,-16.422 19.464,-25.452 z m 21.388,7.414 10.552,-179.95 c 0.379,-3.518 0.902,-6.844 1.568,-9.982 0.664,-3.136 1.877,-6.155 3.637,-9.054 1.757,-2.901 3.779,-4.348 6.06,-4.348 v -0.571 H 1.853 v 0.571 c 5.608,0 8.414,7.318 8.414,21.959 v 3.137 l -0.286,2.994 c -1.047,16.73 -5.133,30.846 -12.263,42.349 -2.662,4.182 -5.656,7.747 -8.983,10.695 -3.328,2.945 -6.986,5.276 -10.98,6.986 -3.992,1.712 -7.557,2.995 -10.694,3.851 -3.137,0.855 -6.94,1.662 -11.407,2.424 l -30.087,-69.299 c -3.518,-8.177 -5.275,-14.594 -5.275,-19.251 0,-3.899 1.376,-5.845 4.135,-5.845 l -0.286,-0.571 h -30.657 l 0.285,0.571 c 5.704,0 12.405,7.793 20.106,23.384 l 67.445,154.142 c 3.516,9.315 5.276,15.874 5.276,19.677 0,3.612 -1.332,5.419 -3.992,5.419 l 0.285,0.712 z" /></g><g
           transform="translate(1522.2219,760.2609)"
           id="g52"><path
             id="path54"
             style="fill:#000000;fill-opacity:1;fill-rule:nonzero;stroke:none"
             d="m 0,0 c -9.981,0 -18.372,3.137 -25.168,9.41 -6.797,6.275 -11.692,14.402 -14.686,24.384 -2.994,9.981 -4.492,21.482 -4.492,34.507 0,12.262 1.33,24.953 3.993,38.072 2.66,13.118 6.581,25.76 11.764,37.929 5.179,12.168 11.215,23.075 18.109,32.725 6.891,9.647 14.947,17.396 24.168,23.242 9.22,5.847 18.87,8.769 28.947,8.769 6.273,0 13.735,-0.69 22.387,-2.067 8.648,-1.379 13.925,-2.068 15.827,-2.068 3.993,0 6.275,1.377 6.845,4.135 h 3.137 L 87.979,193.781 79.708,149.72 h -5.275 c 1.045,5.134 1.568,10.314 1.568,15.543 0,11.597 -2.567,21.033 -7.699,28.304 -5.134,7.272 -11.551,11.051 -19.251,11.336 h -1.425 c -7.511,0 -14.808,-3.114 -21.888,-9.34 -7.083,-6.227 -13.332,-14.497 -18.751,-24.81 -5.418,-10.316 -10.196,-21.794 -14.331,-34.436 -4.135,-12.643 -7.296,-25.644 -9.482,-38.998 -2.188,-13.358 -3.28,-25.977 -3.28,-37.859 0,-16.636 2.233,-30.04 6.702,-40.211 C -8.937,9.076 -2.235,3.992 6.702,3.992 h 0.285 c 8.556,0 17.347,4.777 26.38,14.331 9.03,9.553 16.587,22.694 22.671,39.426 h 6.417 L 55.469,23.242 C 49.954,14.495 42.492,8.434 33.081,5.062 23.67,1.688 12.642,0 0,0" /></g><g
           transform="translate(1592.0439,762.8275)"
           id="g56"><path
             id="path58"
             style="fill:#000000;fill-opacity:1;fill-rule:nonzero;stroke:none"
             d="m 0,0 v 0.57 c 2.092,0 4.064,1.069 5.918,3.208 1.853,2.139 3.398,4.824 4.634,8.057 1.234,3.23 2.21,6.154 2.923,8.769 0.713,2.614 1.259,5.013 1.64,7.201 L 43.206,176.1 c 1.141,5.703 1.71,10.552 1.71,14.544 0,8.364 -2.138,12.549 -6.416,12.549 v 0.712 h 40.924 v -0.712 c -2.092,0 -4.064,-1.024 -5.918,-3.066 -1.854,-2.046 -3.4,-4.755 -4.634,-8.129 -1.236,-3.374 -2.188,-6.251 -2.852,-8.626 -0.666,-2.377 -1.283,-4.802 -1.853,-7.272 l -10.98,-58.462 h 62.455 l 10.837,58.462 c 1.141,5.703 1.711,10.552 1.711,14.544 0,8.364 -2.139,12.549 -6.417,12.549 l 0.286,0.712 h 40.923 l -0.285,-0.712 c -2.092,0 -4.064,-1.048 -5.917,-3.137 -1.855,-2.093 -3.376,-4.756 -4.563,-7.986 -1.191,-3.233 -2.139,-6.156 -2.853,-8.77 -0.712,-2.615 -1.26,-5.014 -1.639,-7.2 L 119.349,27.805 c -0.952,-4.754 -1.426,-9.46 -1.426,-14.117 0,-8.747 2.14,-13.118 6.417,-13.118 L 124.055,0 H 83.131 l 0.428,0.57 c 1.996,0 3.921,1.069 5.775,3.208 1.853,2.139 3.373,4.824 4.563,8.057 1.187,3.23 2.139,6.154 2.851,8.769 0.714,2.614 1.259,5.013 1.64,7.201 l 7.273,38.785 c 0.948,5.893 1.425,10.645 1.425,14.259 0,10.456 -2.352,18.536 -7.058,24.24 -4.705,5.704 -10.529,8.556 -17.467,8.556 -8.177,0 -15.971,-3.9 -23.385,-11.693 C 51.761,94.156 46.721,83.224 44.061,69.157 L 36.218,27.805 C 35.267,23.051 34.792,18.251 34.792,13.403 34.792,4.848 36.836,0.57 40.924,0.57 V 0 Z" /></g><g
           transform="translate(528.6359,653.8059)"
           id="g60"><path
             id="path62"
             style="fill:#000000;fill-opacity:1;fill-rule:nonzero;stroke:none"
             d="m 0,0 c -0.804,-0.536 -1.897,-1.139 -3.281,-1.808 -1.384,-0.669 -3.003,-1.228 -4.855,-1.675 -1.853,-0.445 -3.874,-0.669 -6.06,-0.669 -3.75,0.045 -7.132,0.713 -10.145,2.009 -3.013,1.294 -5.569,3.057 -7.667,5.29 -2.099,2.232 -3.717,4.81 -4.855,7.734 -1.139,2.924 -1.707,6.038 -1.707,9.342 0,3.616 0.59,6.952 1.774,10.011 1.182,3.057 2.845,5.714 4.989,7.969 2.143,2.253 4.676,4.006 7.6,5.257 2.924,1.249 6.127,1.874 9.61,1.874 2.9,0 5.534,-0.391 7.901,-1.171 2.365,-0.782 4.396,-1.709 6.094,-2.779 l -2.612,-6.028 c -1.339,0.893 -2.957,1.741 -4.855,2.545 -1.898,0.804 -4.007,1.206 -6.328,1.206 -2.367,0 -4.598,-0.469 -6.696,-1.407 -2.099,-0.937 -3.951,-2.254 -5.558,-3.95 -1.607,-1.698 -2.869,-3.673 -3.783,-5.927 -0.916,-2.254 -1.373,-4.677 -1.373,-7.266 0,-2.633 0.411,-5.078 1.238,-7.332 0.826,-2.254 2.009,-4.209 3.549,-5.859 1.54,-1.653 3.404,-2.946 5.592,-3.884 2.187,-0.937 4.642,-1.406 7.365,-1.406 2.456,0 4.643,0.378 6.564,1.138 1.918,0.758 3.504,1.607 4.754,2.544 z" /></g><g
           transform="translate(593.9917,668.5377)"
           id="g64"><path
             id="path66"
             style="fill:#000000;fill-opacity:1;fill-rule:nonzero;stroke:none"
             d="m 0,0 h 18.013 l 2.143,-5.625 H -1.875 Z M -12.388,-18.348 8.773,32.075 H 9.174 L 30.267,-18.348 H 22.835 L 7.031,21.897 11.651,24.91 -6.026,-18.348 Z" /></g><g
           transform="translate(705.2858,689.9661)"
           id="g68"><path
             id="path70"
             style="fill:#000000;fill-opacity:1;fill-rule:nonzero;stroke:none"
             d="m 0,0 c -1.653,0.848 -3.461,1.584 -5.424,2.209 -1.965,0.626 -3.884,0.939 -5.76,0.939 -2.589,0 -4.653,-0.603 -6.193,-1.808 -1.54,-1.206 -2.31,-2.813 -2.31,-4.822 0,-1.518 0.49,-2.802 1.472,-3.85 0.982,-1.05 2.277,-1.953 3.885,-2.713 1.606,-0.76 3.281,-1.473 5.022,-2.142 1.517,-0.581 3.013,-1.228 4.486,-1.943 1.474,-0.714 2.801,-1.606 3.985,-2.678 1.182,-1.071 2.12,-2.389 2.812,-3.951 0.692,-1.562 1.038,-3.505 1.038,-5.826 0,-2.544 -0.636,-4.866 -1.909,-6.963 -1.272,-2.099 -3.092,-3.751 -5.457,-4.956 -2.367,-1.205 -5.179,-1.808 -8.437,-1.808 -2.143,0 -4.186,0.246 -6.127,0.736 -1.943,0.491 -3.741,1.128 -5.391,1.909 -1.653,0.781 -3.126,1.595 -4.42,2.444 l 2.88,5.089 c 1.071,-0.759 2.298,-1.484 3.682,-2.176 1.384,-0.693 2.835,-1.25 4.353,-1.674 1.517,-0.425 2.991,-0.636 4.42,-0.636 1.517,0 3.023,0.278 4.52,0.837 1.495,0.557 2.734,1.417 3.717,2.578 0.981,1.16 1.473,2.701 1.473,4.62 0,1.652 -0.435,3.024 -1.306,4.119 -0.87,1.093 -2.021,2.03 -3.449,2.812 -1.429,0.781 -2.946,1.484 -4.554,2.11 -1.518,0.58 -3.058,1.215 -4.62,1.908 -1.563,0.692 -3.014,1.54 -4.352,2.544 -1.34,1.005 -2.411,2.244 -3.215,3.717 -0.804,1.473 -1.205,3.258 -1.205,5.357 0,2.545 0.613,4.765 1.842,6.663 1.227,1.897 2.912,3.392 5.055,4.487 2.143,1.093 4.598,1.685 7.366,1.774 3.125,0 5.881,-0.379 8.271,-1.138 C -1.464,7.009 0.646,6.07 2.477,4.956 Z" /></g><g
           transform="translate(773.6537,668.5377)"
           id="g72"><path
             id="path74"
             style="fill:#000000;fill-opacity:1;fill-rule:nonzero;stroke:none"
             d="m 0,0 h 18.013 l 2.143,-5.625 H -1.875 Z M -12.388,-18.348 8.773,32.075 H 9.174 L 30.267,-18.348 H 22.835 L 7.031,21.897 11.651,24.91 -6.026,-18.348 Z" /></g><g
           transform="translate(934.433,656.4177)"
           id="g76"><path
             id="path78"
             style="fill:#000000;fill-opacity:1;fill-rule:nonzero;stroke:none"
             d="m 0,0 h 7.768 c 2.678,0 5.145,0.401 7.4,1.205 2.253,0.804 4.218,1.964 5.893,3.482 1.673,1.517 2.979,3.382 3.916,5.591 0.939,2.211 1.407,4.722 1.407,7.534 0,2.99 -0.491,5.614 -1.473,7.868 -0.983,2.254 -2.322,4.141 -4.018,5.659 -1.697,1.517 -3.616,2.666 -5.759,3.448 -2.143,0.781 -4.398,1.173 -6.764,1.173 H 0 Z M -6.495,-6.228 V 42.187 H 6.697 c 4.776,0 8.849,-0.737 12.22,-2.21 3.371,-1.473 6.083,-3.415 8.136,-5.826 2.053,-2.411 3.56,-5.078 4.521,-8.002 0.959,-2.924 1.44,-5.837 1.44,-8.739 0,-3.661 -0.637,-6.942 -1.909,-9.843 -1.273,-2.903 -3.025,-5.381 -5.257,-7.434 -2.232,-2.054 -4.787,-3.627 -7.667,-4.72 -2.88,-1.095 -5.927,-1.641 -9.14,-1.641 z" /></g><g
           transform="translate(1025.2358,698.6042)"
           id="g80"><path
             id="path82"
             style="fill:#000000;fill-opacity:1;fill-rule:nonzero;stroke:none"
             d="M 0,0 H 31.472 V -6.227 H 6.495 V -20.96 h 22.299 v -6.227 H 6.495 v -15 h 25.916 v -6.228 H 0 Z" /></g><g
           transform="translate(1197.3986,674.2299)"
           id="g84"><path
             id="path86"
             style="fill:#000000;fill-opacity:1;fill-rule:nonzero;stroke:none"
             d="m 0,0 c 1.92,0 3.505,0.312 4.755,0.937 1.249,0.625 2.232,1.417 2.946,2.378 0.713,0.959 1.227,1.975 1.54,3.046 0.312,1.072 0.469,2.031 0.469,2.88 0,0.981 -0.157,1.997 -0.469,3.047 -0.313,1.049 -0.837,2.009 -1.574,2.879 -0.736,0.871 -1.696,1.584 -2.878,2.143 -1.184,0.558 -2.646,0.837 -4.387,0.837 h -7.5 V 0 Z m -0.669,24.374 c 3.526,0 6.539,-0.591 9.04,-1.774 2.5,-1.183 4.43,-2.89 5.792,-5.123 1.362,-2.233 2.043,-4.933 2.043,-8.102 0,-1.92 -0.291,-3.807 -0.871,-5.659 C 14.755,1.863 13.828,0.189 12.556,-1.306 11.284,-2.802 9.62,-3.997 7.568,-4.889 5.514,-5.783 3.014,-6.228 0.067,-6.228 H -7.098 V -24.04 h -6.495 v 48.414 z" /></g><g
           transform="translate(1270.5227,698.6042)"
           id="g88"><path
             id="path90"
             style="fill:#000000;fill-opacity:1;fill-rule:nonzero;stroke:none"
             d="m 0,0 h 6.495 v -42.187 h 24.576 v -6.228 H 0 Z" /></g><g
           transform="translate(1366.6144,668.5377)"
           id="g92"><path
             id="path94"
             style="fill:#000000;fill-opacity:1;fill-rule:nonzero;stroke:none"
             d="m 0,0 h 18.013 l 2.143,-5.625 H -1.875 Z M -12.388,-18.348 8.773,32.075 H 9.174 L 30.267,-18.348 H 22.835 L 7.031,21.897 11.651,24.91 -6.026,-18.348 Z" /></g><g
           transform="translate(1459.6277,666.3282)"
           id="g96"><path
             id="path98"
             style="fill:#000000;fill-opacity:1;fill-rule:nonzero;stroke:none"
             d="m 0,0 -17.946,32.276 h 7.968 L 4.42,5.558 2.411,5.423 16.674,32.276 h 7.902 L 6.496,0 V -16.139 H 0 Z" /></g><g
           transform="translate(1540.9896,668.5377)"
           id="g100"><path
             id="path102"
             style="fill:#000000;fill-opacity:1;fill-rule:nonzero;stroke:none"
             d="m 0,0 h 18.013 l 2.143,-5.625 H -1.875 Z M -12.388,-18.348 8.773,32.075 H 9.174 L 30.267,-18.348 H 22.835 L 7.031,21.897 11.651,24.91 -6.026,-18.348 Z" /></g><g
           transform="translate(1074.4484,1193.5403)"
           id="g104"><path
             id="path106"
             style="fill:#000000;fill-opacity:1;fill-rule:nonzero;stroke:none"
             d="m 0,0 c 0.574,-3.999 15.944,-8.511 20.618,-11.1 33.123,-14.815 65.092,-42.432 76.781,-76.963 5.638,-17.414 -2.618,-25.887 4.805,-45.369 3.396,-11.044 6.103,-24.766 -6.362,-30.464 -11.888,-4.944 -16.068,7.623 -21.9,15.107 -5.624,7.755 -14.255,5.966 -20.502,15.515 -4.713,7.651 -6.963,17.154 -9.564,25.623 -6.462,26.028 -12.545,-8.319 -32.797,21.86 -9.856,15.939 -15.13,35.577 -30.499,47.138 -2.646,1.95 -6.706,4.59 -9.315,2.992 -5.223,-3.91 6.346,-29.459 7.637,-36.686 2.529,-8.414 4.943,-16.863 7.186,-25.356 24.63,-93.277 20.877,-195.811 -17.237,-284.882 -5.584,-13.049 -11.259,-26.854 -21.281,-37.218 -5.187,-5.363 -11.766,-11.384 -19.652,-10.37 -7.459,0.959 -14.506,7.377 -17.447,14.034 -5.319,12.037 1.369,22.754 7.352,32.925 7.618,12.954 16.069,25.451 22.248,39.197 7.789,17.33 13.791,35.439 18.355,53.872 8.884,35.88 12.47,73.08 11.787,110.005 -0.83,44.809 -12.228,88.961 -25.511,131.498 -2.242,5.905 -4.158,16.713 -11.879,15.202 -6.264,-2.157 -10.35,-9.528 -13.606,-15.134 -4.037,-7.428 -6.431,-14.672 -8.511,-22.503 -1.224,-4.607 -2.633,-9.888 -5.377,-13.651 -3.296,-4.672 -7.807,-4.126 -10.624,1.666 -3.248,2.871 -1.963,30.184 -7.433,17.449 -6.669,-20.601 -3.523,-48.308 -10.705,-68.387 -2.756,-9.287 -11.842,-16.02 -16.985,-4.027 -4.732,10.703 -2.624,25.698 -3.906,37.262 -1.54,2.843 -4.688,-10.035 -5.994,-19.93 -2.716,-15.414 0.916,-60.772 -14.5,-66.5 -9.272,-1.568 -4.614,-12.828 -6.727,-17.624 -5.71,-3.024 -14.321,29.436 -15.148,33.816 -14.796,47.402 5.554,101.596 39.014,136.312 7.874,8.264 17.339,14.702 27.303,20.583 2.591,1.732 11.12,6.441 9.906,8.172 -3.947,1.569 -10.309,-0.768 -15.683,-1.894 -12.695,-3.311 -24.111,-10.096 -35.37,-16.699 -7.547,-4.358 -14.989,-8.806 -20.232,-8.562 -11.609,1.81 -9.709,16.864 -24.835,5.186 -11.095,-8.972 -23.47,-16.236 -35.847,-23.141 -7.835,-4.469 -14.389,-9.831 -22.451,-10.926 -7.803,-1.168 -12.759,4.64 -9.736,11.808 1.361,3.924 5.584,9.484 9.729,14.494 26.766,32.386 -11.899,-4.917 -18.352,-12.44 -6.014,-6.293 -10.751,-11.927 -15.62,-17.813 -2.984,-3.428 -6.42,-7.779 -10.688,-9.064 -10.326,-1.626 -5.662,15.076 -2.421,20.549 4.781,9.346 13.028,17.881 18.51,27.05 5.167,9.043 8.244,19.121 16.095,27.179 43.821,47.295 109.217,51.623 170.159,39.927 2.585,1.661 -5.888,5.858 -7.605,7.011 -17.401,10.319 -39.151,13.531 -58.658,19.522 -9.657,3.439 -11.927,6.675 -10.235,16.589 -0.233,8.089 -18.736,5.249 -24.645,8.143 -7.302,2.169 -8.437,7.759 -2.911,12.965 3.106,3.821 8.84,7.759 0.128,8.19 -9.67,0.663 -19.635,-0.514 -29.323,-1.305 -18.055,-1.456 -23.786,8.542 -4.811,15.328 11.599,3.985 24.693,8.583 36.47,11.784 38.285,9.408 76.218,-9.599 104.131,-34.826 5.326,-3.812 1.709,1.315 0.373,4.165 -8.745,15.875 4.343,7.549 10.176,1.064 11.795,-11.901 18.477,-26.793 25.438,-41.93 6.504,-13.574 9.84,-5.194 13.608,4.881 9.142,24.001 25.58,46.719 46.199,62.373 14.825,11.86 32.348,14.688 51.187,17.648 14.898,2.506 30.578,6.616 45.673,5.194 12.707,-1.735 10.376,-15.505 1.185,-20.224 -10.026,-4.939 -25.048,-5.395 -36.213,-9.938 -8.795,-3.051 -11.46,-5.69 -0.13,-5.573 6.605,-0.195 13.674,0.862 19.349,-2.244 4.679,-2.713 9.691,-5.936 7.576,-10.666 -1.706,-2.217 -5.879,-3.404 -9.138,-4.612 C 64.169,101.127 57.262,99.48 50.671,97.673 38.533,94.378 27.819,91.319 17.565,86.211 15.115,84.916 -1.039,76.658 10.421,77.9 25.219,80.448 43.168,80.208 17.128,66.84 7.607,61.818 -3.406,56.102 -12.205,50.198 c -1.774,-1.288 -12.198,-8.111 -9.673,-9.612 1.16,-0.247 4.385,0.904 8.682,2.817 54.17,28.563 113.332,23.102 163.054,-12.784 10.974,-7.53 22.588,-15.695 30.233,-26.569 11.187,-16.616 1.364,-22.311 -13.647,-13.237 -6.605,3.281 -12.14,7.275 -16.047,7.194 -3.346,-0.282 -1.003,-9.881 -2.912,-12.616 -4.455,-7.599 -16.699,-1.077 -22.617,2.57 -13.394,8.561 -29.784,19.428 -43.663,25.37 -2.493,1.34 -18.247,6.472 -11.954,-0.675 3.92,-4.122 12.024,-8.849 14.165,-14.481 1.72,-4.691 -3.659,-6.742 -10.037,-6.107 -8.127,1.17 -15.994,4.376 -24.085,6.106 C 40.353,0.681 7.133,5.515 0.019,0.052 Z" /></g></g></g></g></svg>